[Header]
FileType HTR
DataType HTRS
FileVersion 1
NumSegments 22
NumFrames 4
DataFrameRate 24
EulerRotationOrder ZYX
CalibrationUnits mm
RotationUnits Degrees
GlobalAxisofGravity Y
BoneLengthAxis Y
ScaleFactor 1.0
[SegmentNames&Hierarchy]
reference	GLOBAL
Hips	reference
Spine	Hips
Spine1	Spine
Neck	Spine1
Head	Neck
LeftShoulder	Spine1
LeftArm	LeftShoulder
LeftForeArm	LeftArm
LeftHand	LeftForeArm
RightShoulder	Spine1
RightArm	RightShoulder
RightForeArm	RightArm
RightHand	RightForeArm
LeftUpLeg	Hips
LeftLeg	LeftUpLeg
LeftFoot	LeftLeg
LeftToeBase	LeftFoot
RightUpLeg	Hips
RightLeg	RightUpLeg
RightFoot	RightLeg
RightToeBase	RightFoot
[BasePosition]
reference	0	0	0	0	0	0	1
Hips	0	0	0	0	0	0	1
Spine	0	0	0	-0	-90	0	1
Spine1	0	0	0	0	0	0	1
Neck	0	0	0	82.64767223	-82.64767223	-90	1
Head	0	0	0	-0	-90	0	1
LeftShoulder	0	0	0	0	0	0	1
LeftArm	0	0	0	0	0	0	1
LeftForeArm	0	0	0	0	0	0	1
LeftHand	0	0	0	0	0	0	1
RightShoulder	0	0	0	0	-0	180	1
RightArm	0	0	0	0	-0	180	1
RightForeArm	0	0	0	0	-0	180	1
RightHand	0	0	0	0	-0	180	1
LeftUpLeg	0	0	0	-0	90	0	1
LeftLeg	0	0	0	-0	90	0	1
LeftFoot	0	0	0	-23.42853957	23.42853957	-90	1
LeftToeBase	0	0	0	0	-0	-90	1
RightUpLeg	0	0	0	-0	90	0	1
RightLeg	0	0	0	-0	90	0	1
RightFoot	0	0	0	-23.42853957	23.42853957	-90	1
RightToeBase	0	0	0	0	-0	-90	1
[reference]
28	0	0	0	0	-0	0	1.0
29	0	0	0	0	-0	0	1.0
30	0	0	0	0	-0	0	1.0
31	0	0	0	0	-0	0	1.0
[Hips]
28	3.948750496	-0.7791627049	8.84655571	16.77141571	0.390988946	-98.25811768	1.0
29	3.60619998	-0.7785575986	7.569289684	12.05954361	2.287728548	-99.54827881	1.0
30	3.764330864	-0.7775622606	7.290467262	17.20410538	4.275790215	-102.4551926	1.0
31	3.805350304	-0.7930734754	7.16707468	18.72314453	5.007874966	-101.9950714	1.0
[Spine]
28	0	0	0.7457100153	84.50228119	88.56782532	85.60758972	1.0
29	0	0	0.7457100153	31.77182198	87.15001678	30.72780037	1.0
30	0	0	0.7457100153	41.35754013	86.16921997	44.68673325	1.0
31	0	0	0.7457100153	22.64001846	86.94493103	29.22538376	1.0
[Spine1]
28	0	0	2.140589952	-8.430287361	-0.9475268722	0.5817719698	1.0
29	0	0	2.140589952	-16.95772552	0.2159794867	0.4778958559	1.0
30	0	0	2.140589952	-13.93108368	-1.408322573	1.036524057	1.0
31	0	0	2.140589952	-6.912879944	-2.526166677	0.5990835428	1.0
[Neck]
28	0	0	2.32246995	77.20888519	79.77058411	76.28056335	1.0
29	0	0	2.32246995	74.81646729	78.25865173	64.61621857	1.0
30	0	0	2.32246995	71.73260498	77.15485382	69.97584534	1.0
31	0	0	2.32246995	63.64246368	76.24797821	71.8314209	1.0
[Head]
28	0	-0.1818799973	1.409579992	77.59249115	87.13496399	88.20727539	1.0
29	0	-0.1818799973	1.409579992	111.7470245	85.08699799	124.1986465	1.0
30	0	-0.1818799973	1.409579992	107.8161163	84.09379578	117.5140839	1.0
31	0	-0.1818799973	1.409579992	108.9985352	83.30181122	115.4733276	1.0
[LeftShoulder]
28	0.3668199778	0.02662999928	1.946700096	-11.74886036	-0.1294822842	-9.940458298	1.0
29	0.3668199778	0.02662999928	1.946700096	-15.43869019	-2.946358681	-7.520746708	1.0
30	0.3668199778	0.02662999928	1.946700096	-16.18581772	-3.903081179	-7.408587933	1.0
31	0.3668199778	0.02662999928	1.946700096	-15.80088139	-6.123273849	-8.184738159	1.0
[LeftArm]
28	1.140689969	0	0	37.84634399	78.27561951	-15.54528999	1.0
29	1.140689969	0	0	27.16131401	79.12508392	-25.64578056	1.0
30	1.140689969	0	0	9.203512192	77.61291504	-41.4235878	1.0
31	1.140689969	0	0	0.5619547367	78.19517517	-53.09228516	1.0
[LeftForeArm]
28	2.749800205	0	0	40.29412842	-28.68048096	-133.1354218	1.0
29	2.749800205	0	0	40.97669983	-25.95033836	-136.6864471	1.0
30	2.749800205	0	0	43.33730698	-24.63107872	-139.2657166	1.0
31	2.749800205	0	0	52.43745041	-27.2884903	-142.7817383	1.0
[LeftHand]
28	2.295179844	0	0	-19.37321854	-8.720433235	-18.22860336	1.0
29	2.295179844	0	0	-18.20947838	-7.726388931	-15.64954567	1.0
30	2.295179844	0	0	-16.6210804	-7.461658478	-14.94440079	1.0
31	2.295179844	0	0	-17.9432888	-8.970738411	-14.18699741	1.0
[RightShoulder]
28	-0.3601199985	0.02662999928	1.946700096	-10.9220171	0.1599241644	-167.2119141	1.0
29	-0.3601199985	0.02662999928	1.946700096	-14.00915623	1.839422584	-170.7386475	1.0
30	-0.3601199985	0.02662999928	1.946700096	-15.64338303	4.686799526	-170.5175171	1.0
31	-0.3601199985	0.02662999928	1.946700096	-16.20516014	5.935406685	-170.3765259	1.0
[RightArm]
28	-1.140689969	0	0	-147.4308777	-104.3273773	31.19982529	1.0
29	-1.140689969	0	0	-154.4280548	-104.3766632	37.07740784	1.0
30	-1.140689969	0	0	-166.0973969	-105.7199554	46.07581711	1.0
31	-1.140689969	0	0	-170.3840637	-105.9447632	49.20645905	1.0
[RightForeArm]
28	-2.749800205	0	0	69.65988922	34.44019699	-43.15945816	1.0
29	-2.749800205	0	0	71.85509491	32.57978058	-39.52282715	1.0
30	-2.749800205	0	0	71.91631317	31.38305283	-38.87121582	1.0
31	-2.749800205	0	0	71.20462036	30.98993492	-38.5509491	1.0
[RightHand]
28	-2.295179844	0	0	-4.962788105	18.58727646	-170.6946106	1.0
29	-2.295179844	0	0	-5.086512089	17.05197334	-171.2451782	1.0
30	-2.295179844	0	0	-3.95456624	15.64134026	-171.3892059	1.0
31	-2.295179844	0	0	-4.459203243	15.07952881	-171.6024475	1.0
[LeftUpLeg]
28	0.9094099998	0	0	-35.43386078	-109.9040527	-3.671523094	1.0
29	0.9094099998	0	0	-37.28752136	-105.1578217	3.943206787	1.0
30	0.9094099998	0	0	-9.378958702	-101.5843658	-37.56825256	1.0
31	0.9094099998	0	0	-34.07711792	-103.7446899	-17.39877319	1.0
[LeftLeg]
28	0	0	-4.498080254	10.65582371	-69.95545197	30.13791466	1.0
29	0	0	-4.498080254	35.60823059	-75.11305237	18.66133881	1.0
30	0	0	-4.498080254	86.47349548	-76.18725586	-16.93470573	1.0
31	0	0	-4.498080254	73.14757538	-72.11940002	1.363196373	1.0
[LeftFoot]
28	0	0	-3.729400158	-17.43868256	3.687528372	95.71321869	1.0
29	0	0	-3.729400158	-69.25443268	-9.900063515	100.1093674	1.0
30	0	0	-3.729400158	-67.97958374	-3.710238934	100.2054977	1.0
31	0	0	-3.729400158	-67.32447052	0.2353615165	104.4801941	1.0
[LeftToeBase]
28	0	-1.364109993	-0.5911099911	9.999999975e-007	0	0	1.0
29	0	-1.364109993	-0.5911099911	9.999999975e-007	0	0	1.0
30	0	-1.364109993	-0.5911099911	9.999999975e-007	0	0	1.0
31	0	-1.364109993	-0.5911099911	9.999999975e-007	0	0	1.0
[RightUpLeg]
28	-0.9094099998	0	0	-99.29574585	-108.8090439	67.23396301	1.0
29	-0.9094099998	0	0	-84.33257294	-108.4593201	50.83720398	1.0
30	-0.9094099998	0	0	-75.58247375	-104.8144073	28.60079575	1.0
31	-0.9094099998	0	0	-77.61061096	-109.0090561	28.31035233	1.0
[RightLeg]
28	0	0	-4.498080254	24.28392792	-80.34369659	0.2408907413	1.0
29	0	0	-4.498080254	20.22996521	-71.31785583	27.70648003	1.0
30	0	0	-4.498080254	21.44017601	-73.37430573	40.75899124	1.0
31	0	0	-4.498080254	22.37318802	-70.5947876	40.50260162	1.0
[RightFoot]
28	0	0	-3.729400158	-27.16488075	-37.01727295	103.7530365	1.0
29	0	0	-3.729400158	-68.50994873	-34.31461716	98.80850983	1.0
30	0	0	-3.729400158	-62.81868744	-37.21920013	92.95840454	1.0
31	0	0	-3.729400158	-65.81143188	-35.76528168	94.31291199	1.0
[RightToeBase]
28	0	-1.364109993	-0.5911099911	9.999999975e-007	0	0	1.0
29	0	-1.364109993	-0.5911099911	9.999999975e-007	0	0	1.0
30	0	-1.364109993	-0.5911099911	9.999999975e-007	0	0	1.0
31	0	-1.364109993	-0.5911099911	9.999999975e-007	0	0	1.0
[EndOfFile]
